<?xml version="1.0" encoding="utf-8"?>
<!-- Generator: Adobe Illustrator 16.0.0, SVG Export Plug-In . SVG Version: 6.00 Build 0)  -->
<!DOCTYPE svg PUBLIC "-//W3C//DTD SVG 1.1//EN" "http://www.w3.org/Graphics/SVG/1.1/DTD/svg11.dtd">
<svg version="1.1" xmlns="http://www.w3.org/2000/svg" xmlns:xlink="http://www.w3.org/1999/xlink" x="0px" y="0px" width="208px"
	 height="42px" viewBox="0 0 208 42" enable-background="new 0 0 208 42" xml:space="preserve">
<g id="comebac">
	<g>
		<path fill="#454545" d="M13.08,20.253c2.71,0,4.927-1.059,6.648-3.175l3.536,3.594c-2.806,3.117-6.112,4.676-9.919,4.676
			c-3.808,0-6.943-1.187-9.406-3.559c-2.464-2.373-3.695-5.368-3.695-8.985c0-3.617,1.255-6.635,3.766-9.055
			C6.52,1.33,9.591,0.12,13.221,0.12c4.055,0,7.449,1.524,10.185,4.571l-3.43,3.838c-1.745-2.14-3.914-3.21-6.507-3.21
			c-2.075,0-3.849,0.669-5.322,2.006c-1.474,1.338-2.21,3.14-2.21,5.408s0.695,4.088,2.086,5.46
			C9.414,19.567,11.1,20.253,13.08,20.253z"/>
		<path fill="#454545" d="M47.876,21.701c-2.499,2.407-5.576,3.611-9.229,3.611c-3.654,0-6.731-1.204-9.229-3.611
			c-2.499-2.408-3.749-5.402-3.749-8.985c0-3.582,1.25-6.577,3.749-8.984c2.499-2.408,5.575-3.612,9.229-3.612
			c3.654,0,6.73,1.204,9.229,3.612c2.499,2.407,3.749,5.403,3.749,8.984C51.625,16.299,50.375,19.293,47.876,21.701z M46.002,12.734
			c0-2.175-0.708-4.03-2.122-5.565c-1.414-1.535-3.153-2.303-5.216-2.303c-2.063,0-3.801,0.768-5.216,2.303
			c-1.415,1.536-2.122,3.391-2.122,5.565c0,2.175,0.707,4.024,2.122,5.548c1.415,1.524,3.153,2.286,5.216,2.286
			c2.063,0,3.802-0.762,5.216-2.286C45.294,16.758,46.002,14.909,46.002,12.734z"/>
		<path fill="#454545" d="M78.428,9.716l-6.684,13.329h-3.289L61.808,9.716v15.353h-5.517V0.679h7.461l6.365,13.398l6.4-13.398
			h7.426v24.39h-5.517V9.716z"/>
		<path fill="#454545" d="M107.85,0.679v4.85H95.543v5.024h11.068v4.641H95.543v5.06h12.695v4.815H90.027V0.679H107.85z"/>
		<path fill="#454545" d="M123.975,25.068h-10.822V0.679h9.619c1.674,0,3.117,0.198,4.332,0.593c1.213,0.396,2.127,0.931,2.74,1.605
			c1.107,1.256,1.662,2.675,1.662,4.257c0,1.908-0.625,3.327-1.875,4.257c-0.424,0.326-0.719,0.529-0.883,0.61
			c-0.166,0.082-0.461,0.215-0.885,0.401c1.533,0.326,2.752,1.006,3.66,2.042s1.361,2.32,1.361,3.855
			c0,1.698-0.59,3.199-1.768,4.501C129.75,24.313,127.369,25.068,123.975,25.068z M118.67,10.553h2.617
			c1.531,0,2.668-0.163,3.412-0.489c0.742-0.325,1.113-1.029,1.113-2.111s-0.342-1.797-1.025-2.146
			c-0.684-0.349-1.84-0.523-3.465-0.523h-2.652V10.553z M118.67,20.462h3.783c1.58,0,2.764-0.192,3.555-0.576
			c0.789-0.384,1.184-1.139,1.184-2.268c0-1.128-0.418-1.872-1.256-2.233c-0.836-0.36-2.174-0.541-4.014-0.541h-3.252V20.462z"/>
		<path fill="#454545" d="M154.846,25.068l-2.299-5.269h-10.361l-2.299,5.269h-5.869l10.68-24.39h5.338l10.68,24.39H154.846z
			 M147.385,7.936l-3.113,7.083h6.189L147.385,7.936z"/>
		<path fill="#454545" d="M174.932,20.253c2.711,0,4.926-1.059,6.646-3.175l3.537,3.594c-2.807,3.117-6.111,4.676-9.92,4.676
			c-3.807,0-6.941-1.187-9.406-3.559c-2.463-2.373-3.695-5.368-3.695-8.985c0-3.617,1.256-6.635,3.768-9.055
			c2.51-2.419,5.58-3.629,9.211-3.629c4.055,0,7.449,1.524,10.184,4.571l-3.43,3.838c-1.744-2.14-3.914-3.21-6.506-3.21
			c-2.074,0-3.85,0.669-5.322,2.006c-1.475,1.338-2.211,3.14-2.211,5.408s0.695,4.088,2.088,5.46
			C171.266,19.567,172.951,20.253,174.932,20.253z"/>
	</g>
</g>
<g id="_xF005_">
	<g>
		<path d="M44.722,10.941c0,0.098-0.058,0.206-0.174,0.321l-2.431,2.371l0.576,3.348c0.004,0.031,0.007,0.076,0.007,0.134
			c0,0.094-0.023,0.173-0.07,0.237c-0.047,0.065-0.115,0.097-0.204,0.097c-0.085,0-0.174-0.027-0.268-0.08L39.15,15.79l-3.006,1.581
			c-0.099,0.053-0.188,0.08-0.268,0.08c-0.094,0-0.164-0.032-0.211-0.097c-0.047-0.064-0.07-0.144-0.07-0.237
			c0-0.027,0.004-0.072,0.013-0.134l0.576-3.348l-2.438-2.371c-0.112-0.121-0.167-0.228-0.167-0.321
			c0-0.165,0.125-0.268,0.375-0.308l3.362-0.489l1.506-3.047c0.085-0.183,0.194-0.274,0.328-0.274c0.134,0,0.243,0.091,0.328,0.274
			l1.507,3.047l3.362,0.489C44.597,10.673,44.722,10.776,44.722,10.941z"/>
	</g>
</g>
<g id="k">
	<g>
		<path fill="#454545" d="M207.667,25.068h-5.517V18.16l-2.476-2.722l-7.249,9.63h-6.436c1.131-1.559,2.841-3.925,5.127-7.101
			c2.287-3.175,3.854-5.344,4.703-6.507l-9.83-10.782h6.824l9.336,10.014V0.679h5.517V25.068z"/>
	</g>
</g>
<g id="Jewelry_store">
	<g>
		<path fill="#979797" d="M4.032,39.463c0,0.399-0.049,0.758-0.147,1.074c-0.098,0.317-0.243,0.585-0.435,0.803
			c-0.191,0.219-0.427,0.386-0.708,0.503c-0.28,0.116-0.602,0.175-0.965,0.175c-0.323,0-0.66-0.047-1.01-0.14
			c0.007-0.097,0.015-0.193,0.025-0.288c0.01-0.095,0.02-0.189,0.03-0.282c0.007-0.057,0.027-0.103,0.063-0.138
			s0.087-0.053,0.158-0.053c0.06,0,0.14,0.016,0.24,0.045c0.1,0.03,0.233,0.045,0.4,0.045c0.22,0,0.416-0.033,0.588-0.1
			c0.171-0.066,0.316-0.17,0.435-0.31c0.119-0.141,0.208-0.319,0.27-0.538c0.062-0.218,0.093-0.478,0.093-0.777v-4.71h0.965V39.463z
			"/>
		<path fill="#979797" d="M21.092,34.772v0.79h-3.44v2.38h2.785v0.76h-2.785v2.445h3.44v0.79h-4.415v-7.165H21.092z"/>
		<path fill="#979797" d="M32.586,34.772h0.805c0.086,0,0.158,0.021,0.215,0.065c0.057,0.043,0.095,0.098,0.115,0.165l1.48,4.979
			c0.026,0.09,0.051,0.187,0.072,0.29c0.022,0.104,0.042,0.212,0.063,0.325c0.023-0.113,0.047-0.223,0.07-0.328
			c0.023-0.104,0.05-0.2,0.08-0.287l1.685-4.979c0.02-0.057,0.06-0.109,0.118-0.158c0.058-0.048,0.129-0.072,0.212-0.072h0.28
			c0.086,0,0.157,0.021,0.212,0.065c0.055,0.043,0.094,0.098,0.118,0.165l1.675,4.979c0.06,0.174,0.113,0.372,0.16,0.595
			c0.02-0.109,0.038-0.215,0.055-0.314c0.017-0.101,0.039-0.193,0.065-0.28l1.485-4.979c0.017-0.061,0.054-0.113,0.112-0.16
			s0.129-0.07,0.212-0.07h0.755l-2.235,7.165h-0.87l-1.815-5.465c-0.037-0.104-0.07-0.224-0.1-0.36
			c-0.017,0.067-0.033,0.131-0.048,0.192c-0.015,0.063-0.031,0.118-0.047,0.168l-1.825,5.465h-0.87L32.586,34.772z"/>
		<path fill="#979797" d="M58.892,34.772v0.79h-3.44v2.38h2.785v0.76h-2.785v2.445h3.44v0.79h-4.415v-7.165H58.892z"/>
		<path fill="#979797" d="M72.156,41.122h3.1v0.815h-4.07v-7.165h0.97V41.122z"/>
		<path fill="#979797" d="M88.292,38.947v2.99h-0.965v-7.165h2.025c0.453,0,0.845,0.046,1.175,0.138s0.603,0.224,0.817,0.397
			c0.215,0.173,0.375,0.383,0.478,0.627c0.104,0.245,0.155,0.52,0.155,0.823c0,0.253-0.04,0.489-0.12,0.71
			c-0.08,0.22-0.196,0.417-0.348,0.592c-0.151,0.176-0.336,0.324-0.555,0.448c-0.219,0.123-0.466,0.217-0.743,0.279
			c0.12,0.07,0.227,0.172,0.32,0.306l2.09,2.845h-0.86c-0.176,0-0.307-0.068-0.39-0.205l-1.86-2.56
			c-0.057-0.08-0.118-0.138-0.185-0.173c-0.067-0.035-0.167-0.053-0.3-0.053H88.292z M88.292,38.242h1.015
			c0.283,0,0.532-0.034,0.747-0.103c0.215-0.068,0.395-0.165,0.54-0.29s0.254-0.273,0.328-0.447c0.073-0.173,0.11-0.365,0.11-0.575
			c0-0.427-0.141-0.748-0.422-0.965s-0.701-0.325-1.257-0.325h-1.06V38.242z"/>
		<path fill="#979797" d="M107.326,39.088v2.85h-0.965v-2.85l-2.625-4.315h0.85c0.086,0,0.155,0.021,0.205,0.065
			c0.05,0.043,0.093,0.097,0.13,0.159l1.64,2.785c0.066,0.117,0.122,0.227,0.167,0.33s0.086,0.205,0.123,0.306
			c0.036-0.104,0.076-0.207,0.12-0.311c0.043-0.104,0.098-0.212,0.165-0.325l1.635-2.785c0.03-0.053,0.07-0.104,0.122-0.152
			c0.052-0.048,0.119-0.072,0.203-0.072h0.859L107.326,39.088z"/>
		<path fill="#979797" d="M138.256,35.893c-0.03,0.05-0.062,0.088-0.095,0.112c-0.033,0.025-0.077,0.038-0.13,0.038
			c-0.058,0-0.123-0.028-0.198-0.086c-0.074-0.057-0.17-0.119-0.285-0.188c-0.114-0.067-0.253-0.13-0.414-0.188
			c-0.162-0.057-0.358-0.085-0.588-0.085c-0.217,0-0.408,0.029-0.575,0.088s-0.306,0.138-0.417,0.237
			c-0.112,0.101-0.196,0.218-0.253,0.353s-0.085,0.281-0.085,0.438c0,0.2,0.049,0.366,0.147,0.498s0.229,0.244,0.39,0.337
			c0.162,0.094,0.346,0.175,0.551,0.243s0.415,0.139,0.63,0.212s0.425,0.156,0.63,0.248s0.388,0.207,0.55,0.347
			c0.162,0.141,0.292,0.313,0.39,0.516c0.099,0.203,0.147,0.453,0.147,0.75c0,0.313-0.053,0.607-0.159,0.882
			c-0.107,0.275-0.263,0.515-0.468,0.718s-0.457,0.363-0.755,0.48c-0.299,0.116-0.638,0.175-1.018,0.175
			c-0.464,0-0.886-0.084-1.268-0.253c-0.382-0.168-0.708-0.396-0.978-0.683l0.28-0.46c0.026-0.036,0.059-0.067,0.098-0.092
			c0.038-0.025,0.08-0.038,0.127-0.038c0.07,0,0.15,0.038,0.24,0.113c0.09,0.074,0.202,0.157,0.337,0.247
			c0.136,0.09,0.299,0.173,0.49,0.247c0.191,0.075,0.426,0.113,0.703,0.113c0.229,0,0.435-0.032,0.614-0.096
			c0.181-0.063,0.333-0.152,0.458-0.268c0.125-0.114,0.221-0.252,0.287-0.412s0.101-0.338,0.101-0.535
			c0-0.217-0.05-0.394-0.147-0.532c-0.099-0.139-0.228-0.254-0.388-0.348c-0.16-0.093-0.343-0.173-0.548-0.237
			c-0.205-0.065-0.415-0.132-0.63-0.2s-0.425-0.147-0.63-0.237s-0.388-0.207-0.548-0.351c-0.16-0.143-0.289-0.322-0.388-0.537
			c-0.098-0.215-0.147-0.48-0.147-0.798c0-0.253,0.05-0.498,0.147-0.734c0.099-0.237,0.241-0.447,0.428-0.63
			c0.187-0.184,0.418-0.33,0.692-0.44c0.275-0.11,0.591-0.165,0.948-0.165c0.399,0,0.765,0.063,1.095,0.19
			c0.33,0.126,0.618,0.31,0.865,0.55L138.256,35.893z"/>
		<path fill="#979797" d="M155.666,34.772v0.815h-2.315v6.35h-0.97v-6.35h-2.325v-0.815H155.666z"/>
		<path fill="#979797" d="M173.752,38.357c0,0.537-0.085,1.029-0.256,1.478c-0.17,0.448-0.409,0.834-0.72,1.157
			c-0.31,0.323-0.683,0.574-1.117,0.753c-0.436,0.179-0.916,0.268-1.442,0.268c-0.527,0-1.007-0.089-1.44-0.268
			s-0.805-0.43-1.115-0.753c-0.31-0.323-0.55-0.709-0.72-1.157s-0.255-0.94-0.255-1.478c0-0.536,0.085-1.029,0.255-1.478
			s0.41-0.835,0.72-1.16c0.311-0.325,0.682-0.577,1.115-0.757c0.434-0.181,0.913-0.271,1.44-0.271c0.526,0,1.007,0.09,1.442,0.271
			c0.435,0.18,0.808,0.432,1.117,0.757c0.311,0.325,0.55,0.712,0.72,1.16C173.667,37.328,173.752,37.821,173.752,38.357z
			 M172.757,38.357c0-0.439-0.061-0.835-0.181-1.185c-0.119-0.351-0.29-0.646-0.51-0.888c-0.22-0.242-0.486-0.428-0.8-0.558
			s-0.663-0.195-1.05-0.195c-0.384,0-0.732,0.065-1.045,0.195c-0.313,0.13-0.581,0.315-0.803,0.558
			c-0.222,0.241-0.393,0.537-0.513,0.888c-0.12,0.35-0.18,0.745-0.18,1.185c0,0.44,0.06,0.834,0.18,1.183s0.291,0.644,0.513,0.885
			c0.222,0.242,0.489,0.427,0.803,0.556c0.313,0.128,0.661,0.192,1.045,0.192c0.387,0,0.736-0.064,1.05-0.192
			c0.313-0.129,0.58-0.313,0.8-0.556c0.22-0.241,0.391-0.536,0.51-0.885C172.696,39.191,172.757,38.798,172.757,38.357z"/>
		<path fill="#979797" d="M187.041,38.947v2.99h-0.965v-7.165h2.025c0.453,0,0.845,0.046,1.175,0.138s0.603,0.224,0.817,0.397
			c0.215,0.173,0.374,0.383,0.478,0.627c0.104,0.245,0.155,0.52,0.155,0.823c0,0.253-0.04,0.489-0.12,0.71
			c-0.08,0.22-0.196,0.417-0.348,0.592c-0.151,0.176-0.337,0.324-0.555,0.448c-0.219,0.123-0.466,0.217-0.742,0.279
			c0.119,0.07,0.227,0.172,0.319,0.306l2.09,2.845h-0.859c-0.177,0-0.307-0.068-0.391-0.205l-1.859-2.56
			c-0.057-0.08-0.118-0.138-0.186-0.173c-0.066-0.035-0.166-0.053-0.3-0.053H187.041z M187.041,38.242h1.016
			c0.283,0,0.532-0.034,0.747-0.103s0.396-0.165,0.54-0.29c0.146-0.125,0.254-0.273,0.328-0.447
			c0.073-0.173,0.109-0.365,0.109-0.575c0-0.427-0.141-0.748-0.422-0.965c-0.282-0.217-0.701-0.325-1.258-0.325h-1.061V38.242z"/>
		<path fill="#979797" d="M207.731,34.772v0.79h-3.44v2.38h2.785v0.76h-2.785v2.445h3.44v0.79h-4.415v-7.165H207.731z"/>
	</g>
</g>
</svg>
